<?xml version="1.0" encoding="UTF-8" standalone="no"?>
<!-- Created with Inkscape (http://www.inkscape.org/) -->

<svg
   xmlns:dc="http://purl.org/dc/elements/1.1/"
   xmlns:cc="http://creativecommons.org/ns#"
   xmlns:rdf="http://www.w3.org/1999/02/22-rdf-syntax-ns#"
   xmlns:svg="http://www.w3.org/2000/svg"
   xmlns="http://www.w3.org/2000/svg"
   xmlns:sodipodi="http://sodipodi.sourceforge.net/DTD/sodipodi-0.dtd"
   xmlns:inkscape="http://www.inkscape.org/namespaces/inkscape"
   version="1.1"
   id="svg3767"
   width="682.66669"
   height="682.66669"
   viewBox="0 0 682.66669 682.66669"
   sodipodi:docname="fa-icon-group.svg"
   inkscape:version="0.92.1 r15371">
  <metadata
     id="metadata3773">
    <rdf:RDF>
      <cc:Work
         rdf:about="">
        <dc:format>image/svg+xml</dc:format>
        <dc:type
           rdf:resource="http://purl.org/dc/dcmitype/StillImage" />
        <dc:title></dc:title>
      </cc:Work>
    </rdf:RDF>
  </metadata>
  <defs
     id="defs3771" />
  <sodipodi:namedview
     pagecolor="#ffffff"
     bordercolor="#666666"
     borderopacity="1"
     objecttolerance="10"
     gridtolerance="10"
     guidetolerance="10"
     inkscape:pageopacity="0"
     inkscape:pageshadow="2"
     inkscape:window-width="1152"
     inkscape:window-height="668"
     id="namedview3769"
     showgrid="false"
     inkscape:zoom="0.66943357"
     inkscape:cx="341.33334"
     inkscape:cy="341.33334"
     inkscape:window-x="-8"
     inkscape:window-y="-8"
     inkscape:window-maximized="1"
     inkscape:current-layer="svg3767" />
  <g
     transform="translate(1.0980594,1.5892931)"
     id="g3777">
    <path
       id="path3779"
       style="fill:#8a8a8a;stroke-width:1.33333337"
       d="m 170.00001,652.38062 c -27.93295,-3.86296 -51.7648,-20.0386 -63.28723,-42.95556 -7.639617,-15.19444 -9.328734,-24.35908 -9.355178,-50.75837 -0.03341,-33.36482 3.138868,-61.78287 9.972218,-89.33334 4.68742,-18.89856 6.72156,-24.46205 15.35612,-42 13.07896,-26.56512 26.44903,-41.01632 47.48461,-51.32432 12.50464,-6.12763 26.03344,-9.34235 39.31618,-9.34235 10.97018,0 11.54081,0.25627 36.16045,16.23981 20.28366,13.16854 26.36362,16.15195 46.95862,23.04247 33.355,11.15967 62.65067,11.35225 96.11747,0.63188 18.77672,-6.01472 27.97069,-10.51924 48.29637,-23.66247 25.03351,-16.18745 25.18723,-16.25564 36.58083,-16.22854 28.02071,0.0667 54.64165,13.50906 71.77074,36.24108 26.15937,34.7161 40.00398,88.1722 39.939,154.21038 -0.0269,27.40296 -1.71156,37.40856 -8.669,51.48932 -11.129,22.52334 -32.49471,37.94149 -59.30786,42.79835 -8.10932,1.46889 -41.51136,1.78238 -176.66667,1.6581 -91.66667,-0.0843 -168.46667,-0.40218 -170.66667,-0.70644 z M 50.666668,382.14151 c -9.191497,-2.04931 -22.521404,-8.81262 -29.122009,-14.77586 -2.773717,-2.50589 -6.805968,-7.73829 -8.960557,-11.62757 -3.8634926,-6.97403 -3.9237484,-7.40188 -4.3759232,-31.0714 -0.8295793,-43.42512 3.6775442,-74.337 13.8557592,-95.02902 6.89805,-14.02353 12.295899,-18.81311 22.498382,-19.96308 5.137422,-0.57905 7.304526,0.0764 15.962419,4.82815 37.822726,20.75832 73.231301,28.11336 104.141931,21.63228 7.33334,-1.53759 14.62144,-3.15078 16.1958,-3.58486 2.82686,-0.77941 2.85363,-0.61592 2.15171,13.13718 -0.81988,16.06439 0.99479,31.14583 5.8132,48.31268 3.46267,12.33667 12.80103,33.59108 17.91255,40.76955 1.58638,2.22786 2.66886,4.22876 2.40553,4.44644 -0.26333,0.21766 -5.27879,1.1458 -11.14545,2.06249 -28.61287,4.47092 -50.4216,15.36274 -69.2916,34.60588 l -7.95826,8.11564 -31.375076,-0.11174 c -19.482688,-0.0694 -34.154693,-0.73148 -38.708406,-1.74676 z m 259.500272,-0.82246 c -15.52932,-3.27216 -37.94053,-14.29452 -52.25194,-25.6987 -14.6205,-11.6505 -27.11275,-27.52139 -35.90857,-45.62034 -10.56096,-21.73105 -11.96706,-28.54591 -11.96706,-58 0,-29.4541 1.4061,-36.26895 11.96706,-58 13.01356,-26.77771 32.72806,-46.9128 59.32691,-60.59262 20.40795,-10.49583 30.654,-12.66467 60,-12.70056 21.5629,-0.0264 26.06246,0.35086 35.75942,2.99803 28.84032,7.87311 57.63951,28.65629 74.73,53.92955 8.14358,12.04262 16.1697,30.64972 18.87368,43.75513 3.5591,17.2498 3.55532,43.9893 -0.008,61.26308 -6.18714,29.9879 -27.95169,61.54863 -55.11685,79.92486 -11.58094,7.83408 -31.08186,16.19617 -43.97584,18.85707 -16.525,3.41022 -44.94915,3.35677 -61.42818,-0.11547 z m 243.79135,-5.43468 C 535.10334,356.65656 512.48384,345.39477 483.77,340.93904 l -10.3976,-1.61348 5.32516,-8.8917 c 6.48,-10.81998 13.69682,-29.16676 17.62426,-44.80478 2.37712,-9.4651 2.92905,-15.55387 2.96606,-32.72079 0.044,-20.40936 0.13174,-21.07059 2.71214,-20.43883 1.46666,0.35908 8.66666,1.96025 16,3.55816 30.33504,6.60988 65.46484,-0.49092 102.87191,-20.79357 12.8013,-6.9479 18.20483,-7.47655 26.53309,-2.59587 17.68991,10.36697 27.02219,46.4956 27.61302,106.90003 0.24505,25.05275 0.2343,25.15356 -3.56668,33.45844 -4.63562,10.12844 -12.04615,17.26091 -24.34559,23.43208 -13.34142,6.69398 -19.62326,7.57128 -54.21311,7.57128 H 561.91654 Z M 119.87773,203.42322 C 109.45868,201.23747 94.095945,193.78197 84.284368,186.14985 52.618227,161.51773 42.743536,113.65788 61.695235,76.666669 69.529174,61.375854 84.637783,46.54638 100,39.069589 c 14.11844,-6.87144 21.49108,-8.402921 40.45216,-8.402921 17.98811,0 26.66517,2.025962 41.40911,9.668411 15.19227,7.874837 27.58795,20.490771 35.69731,36.33159 7.48836,14.627763 9.10809,21.859685 9.10809,40.666671 0,18.48541 -1.56396,25.94184 -8.38985,40 -9.8916,20.37209 -30.72663,37.93029 -52.94348,44.61683 -10.05248,3.02545 -34.30865,3.8115 -45.45561,1.47305 z m 408.78895,1.07097 c -33.78222,-5.24854 -64.00364,-33.1632 -71.26725,-65.82752 -2.07512,-9.3318 -1.70116,-35.61459 0.63433,-44.581129 5.72323,-21.972989 22.77544,-43.404937 42.77166,-53.757274 14.87285,-7.699889 23.3958,-9.665475 41.80807,-9.641891 27.78922,0.0356 43.68404,6.328945 62.19993,24.627285 8.9496,8.844451 11.87869,12.86956 16.99408,23.353008 4.34053,8.895445 6.62857,15.643949 7.68501,22.666671 2.04936,13.62321 0.80956,33.24468 -2.7802,44 -8.68718,26.02781 -29.86677,47.18099 -56.08226,56.01235 -8.56408,2.88502 -32.23018,4.66069 -41.96337,3.1485 z m -359.55886,448.8083 c -29.77111,-5.02388 -52.57572,-20.81462 -63.76819,-44.15543 -7.387283,-15.40544 -9.288948,-25.71067 -9.315361,-50.48037 -0.03429,-32.15841 3.228925,-60.81902 10.058281,-88.34125 4.82468,-19.44341 7.95248,-28.15176 15.92049,-44.32543 18.89126,-38.34597 46.32874,-58.0188 84.07138,-60.27965 14.24049,-0.85303 13.19499,-1.2722 39.62348,15.88583 20.14931,13.08142 28.69838,17.335 47.41627,23.59193 37.85649,12.65449 77.49435,10.18775 115.64182,-7.19661 5.35757,-2.44152 18.02921,-9.79854 28.1592,-16.34891 26.8432,-17.35768 25.4296,-16.79823 40.36619,-15.97517 28.2104,1.55448 52.23493,14.44297 69.41067,37.2369 26.55886,35.24627 41.29768,94.86166 39.69944,160.57588 -0.52576,21.61738 -0.91836,24.82521 -4.20566,34.36334 -4.50622,13.07488 -8.69216,20.29727 -17.08817,29.48386 -11.96627,13.09299 -31.05694,22.70064 -51.35304,25.84416 -11.19866,1.73447 -334.403,1.84787 -344.6368,0.12093 z M 51.214574,383.35485 C 33.488018,379.49789 17.593414,368.22596 11.027291,354.85536 7.5070048,347.687 7.3116614,346.26768 6.8723712,324.66668 6.1636662,289.81789 10.178887,255.9826 17.24127,237.29049 c 7.000285,-18.52776 15.08932,-27.13971 27.028946,-28.77622 5.599506,-0.76749 7.227752,-0.27854 17.289067,5.19172 28.225651,15.34608 50.378387,22.25595 74.440717,23.21948 15.76795,0.6314 29.25145,-1.03228 46.13269,-5.69214 2.75638,-0.76087 2.79021,-0.52051 2.20448,15.66364 -0.67831,18.74212 1.5805,35.71696 6.93592,52.1228 3.42244,10.48436 12.33714,29.40431 16.89309,35.85273 1.37527,1.94654 2.50049,4.11368 2.50049,4.81588 0,0.70219 -3.84888,1.67105 -8.55306,2.15301 -18.92343,1.93876 -40.34712,9.59425 -55.10579,19.69138 -3.48763,2.38607 -10.95316,8.71731 -16.59006,14.06944 l -10.2489,9.73114 -30.417764,-0.106 c -19.892448,-0.0693 -33.227057,-0.71726 -38.536522,-1.8725 z m 260.785436,-0.60286 c -38.63859,-8.16091 -73.04028,-35.24784 -90.70507,-71.41865 -10.43281,-21.36245 -12.60795,-31.5987 -12.60795,-59.33333 0,-20.11292 0.42071,-24.89754 3.04816,-34.66667 12.08619,-44.93743 48.62119,-81.93264 93.14045,-94.31367 11.99729,-3.3365 15.12826,-3.65065 36.45774,-3.65799 20.07474,-0.007 24.91609,0.41537 34.66667,3.02373 45.46783,12.16298 82.3951,48.84516 94.91123,94.28126 2.5386,9.2156 2.93832,14.02227 2.93832,35.33334 0,29.19969 -1.83738,37.97557 -12.42246,59.33333 -18.23562,36.79443 -52.16827,63.38694 -91.14743,71.43089 -16.1399,3.3307 -42.47834,3.32517 -58.27966,-0.012 z m 240.24892,-7.14978 c -5.6369,-5.35213 -12.94891,-11.57236 -16.24891,-13.82274 -15.11364,-10.3065 -37.1476,-18.33339 -54.83896,-19.97763 -5.03858,-0.46828 -9.16104,-1.16254 -9.16104,-1.54278 0,-0.38024 2.65701,-5.24408 5.90448,-10.80853 7.24074,-12.40685 13.33022,-27.57569 17.13908,-42.69335 2.37009,-9.40712 2.8851,-15.38266 2.91732,-33.84889 0.0379,-21.74423 0.12013,-22.40523 2.70578,-21.77216 22.52842,5.51562 29.85614,6.43804 46.00001,5.79048 23.99194,-0.96235 46.69866,-8.00648 74.28956,-23.04628 9.90376,-5.39855 12.11017,-6.10694 17.22563,-5.53035 22.47361,2.53311 34.71149,33.79636 37.83492,96.65419 1.35965,27.36256 0.40989,39.07692 -3.99916,49.32606 -5.49963,12.78422 -22.05598,24.68545 -40.33726,28.99569 -6.06443,1.42984 -16.66513,1.9734 -38.76479,1.98772 l -30.41776,0.0197 z M 120.77979,204.67702 C 73.719957,194.85981 43.117248,147.90738 52.522726,99.953126 56.094175,81.743931 63.440606,68.244836 77.187096,54.632253 95.643817,36.355321 112.9631,29.391033 140.0532,29.353042 c 16.89714,-0.02369 26.02662,2.087204 41.23501,9.534271 21.12781,10.345625 39.27686,33.072491 44.66528,55.931413 2.6014,11.035764 2.5864,34.049364 -0.0295,45.181274 -3.62133,15.41082 -10.54991,27.38154 -23.20989,40.1005 -12.13795,12.19448 -23.87628,19.25932 -38.71415,23.30049 -10.81809,2.94636 -32.1888,3.57731 -43.22022,1.27603 z m 410.55356,1.24747 c -1.46667,-0.33958 -5.96667,-1.26263 -10,-2.05124 -29.21076,-5.71143 -57.48428,-33.75798 -64.64324,-64.1243 -2.59108,-10.99062 -2.5964,-34.26035 -0.0107,-44.468815 6.09938,-24.073805 23.4644,-45.9942 44.65794,-56.372452 15.24898,-7.46727 24.35926,-9.574349 41.39616,-9.574349 27.15012,0 44.08795,6.84297 62.67888,25.322597 19.31688,19.201237 25.86709,35.262457 25.83349,63.344069 -0.0185,15.4869 -0.41602,18.46824 -3.73149,27.9872 -12.45512,35.75965 -42.89548,58.60346 -79.99741,60.03363 -7.43435,0.28658 -14.71699,0.24322 -16.18366,-0.0964 z M 167.54634,653.28686 c -20.62465,-3.51605 -36.64463,-11.81 -49.85424,-25.8108 C 101.16,609.95378 96.059418,593.75611 96.024269,558.66669 95.955977,490.48934 110.46024,434.45637 136.6403,401.75855 c 19.00672,-23.73863 39.73053,-34.49266 69.47245,-36.05074 15.55451,-0.81485 13.06671,-1.76306 38.26983,14.58634 20.29396,13.16481 31.41063,18.69718 50.06492,24.91553 23.59523,7.86539 46.10399,9.86163 69.11467,6.12957 25.76906,-4.17942 46.43242,-12.75521 74.62778,-30.9723 25.6056,-16.54386 22.81309,-15.49235 39.05365,-14.70552 29.60732,1.43444 51.96282,13.61158 70.7421,38.53357 25.91057,34.38592 39.91345,92.44394 38.40888,159.24881 -0.522,23.17712 -0.8628,26.07628 -4.20184,35.74473 -8.7666,25.38432 -29.45857,44.24686 -57.52606,52.44 -7.42038,2.16608 -20.4133,2.3506 -179.33333,2.54691 -94.23334,0.1164 -174.23749,-0.28347 -177.78701,-0.88859 z M 49.683543,383.31453 C 31.338297,379.32888 12.903573,364.51795 8.7094862,350.39493 6.2289533,342.04207 5.9006943,304.1611 8.1159256,281.89825 12.84314,234.39022 24.662121,210.44845 44.392768,208.41207 c 6.738878,-0.69552 8.031346,-0.32266 18.427211,5.31588 19.54709,10.60203 42.386201,19.17531 59.091571,22.18162 16.19352,2.9142 29.39143,1.85961 59.7526,-4.77458 l 3.66414,-0.80064 -0.85224,13.92878 c -1.49692,24.46537 3.4407,48.50756 14.94886,72.78861 3.92362,8.27847 8.35814,16.77108 9.85448,18.8725 1.49634,2.10142 2.72062,4.09528 2.72062,4.43081 0,0.33552 -3.84888,1.00438 -8.55307,1.48634 -27.93181,2.86169 -56.1322,16.34125 -75.40139,36.04124 l -7.28779,7.45072 -31.378877,-0.106 c -21.045499,-0.0711 -34.117574,-0.701 -39.69534,-1.91282 z m 260.983137,-0.56254 c -23.766,-5.01964 -44.71048,-16.70627 -63.39031,-35.37058 -18.70394,-18.6884 -29.19844,-36.25311 -35.53224,-59.47051 -2.68534,-9.84345 -3.06747,-14.31712 -3.06747,-35.91089 0,-21.64046 0.37896,-26.0571 3.08893,-36 7.72084,-28.3278 25.04707,-53.36187 49.88601,-72.07858 13.81842,-10.41249 25.98502,-16.47204 42.07769,-20.95671 11.91376,-3.3201 14.88905,-3.60599 37.60405,-3.61338 21.5011,-0.007 26.12113,0.38254 36.00001,3.03525 36.30836,9.74963 69.56875,37.83643 86.08183,72.69196 8.74386,18.45644 10.44374,27.72124 10.44374,56.92146 0,22.70313 -0.37317,27.35256 -2.943,36.66667 -12.73629,46.16182 -53.40897,84.62479 -99.55892,94.14999 -16.04497,3.31164 -44.85019,3.28093 -60.69032,-0.0647 z m 243.95446,-4.86936 c -18.9829,-19.4073 -47.43142,-33.15274 -74.95268,-36.21479 l -8.99823,-1.00116 4.89697,-8 c 7.32743,-11.97054 14.79066,-29.99454 18.69856,-45.15779 2.98843,-11.59556 3.51491,-16.62483 3.71716,-35.50888 0.19532,-18.2355 0.55916,-21.92144 2.12636,-21.54091 1.03991,0.25249 6.39074,1.65003 11.89074,3.10563 12.85349,3.40173 35.38041,4.60758 47.43219,2.53902 17.42821,-2.99136 38.66508,-10.74882 58.93397,-21.52757 18.64191,-9.91353 27.1122,-8.77465 38.55707,5.18424 10.77905,13.14681 16.93131,40.42196 19.14108,84.85924 1.92449,38.70037 -0.33772,49.99809 -12.44207,62.13694 -3.33993,3.34947 -9.62712,7.98445 -13.97152,10.3 -13.25349,7.06404 -21.24639,8.23499 -56.36293,8.25704 l -31.37888,0.0197 z M 118.84115,204.70345 C 86.36763,197.30758 58.818073,169.03563 52.644916,136.77146 48.658028,115.93387 51.101139,94.962049 59.569154,77.333336 63.410766,69.335869 66.938668,64.791101 77.186347,54.638245 96.894505,35.112447 111.12204,29.3901 140.0532,29.353042 c 27.51071,-0.03524 44.23477,6.695122 62.65131,25.213133 20.21967,20.331054 25.97914,35.894356 24.95506,67.433825 -0.52034,16.02522 -1.09884,19.94591 -4.08818,27.70677 -4.7974,12.45494 -11.27281,21.7374 -22.80713,32.69388 -17.96061,17.06082 -32.21811,22.95644 -57.40876,23.7391 -10.86799,0.33767 -18.75402,-0.1244 -24.51435,-1.4363 z m 405.34767,0.55466 c -9.6754,-1.73041 -23.9949,-7.90989 -32.07668,-13.84246 -17.31396,-12.70962 -32.96647,-35.5024 -36.12043,-52.59763 -2.01253,-10.90845 -1.62804,-35.7324 0.69501,-44.871218 3.83204,-15.075149 10.64435,-26.624605 23.13462,-39.221971 18.53765,-18.696611 35.12549,-25.391497 62.9122,-25.391497 17.69719,0 31.84153,2.953483 42.96181,8.970865 9.75495,5.278578 28.67819,23.758862 34.68078,33.868967 8.63812,14.549092 10.9527,24.274441 10.90656,45.826834 -0.036,16.84703 -0.39546,19.68408 -3.68672,29.10378 -8.94732,25.60736 -30.05286,46.4006 -56.56222,55.72525 -8.97064,3.15542 -35.18371,4.51467 -46.84493,2.42908 z M 170.44115,654.63582 c -19.93072,-3.3633 -39.15187,-12.65076 -51.30157,-24.78835 -9.77876,-9.76901 -19.471691,-28.10097 -22.479123,-42.51412 -4.942322,-23.68612 -1.099016,-78.64795 8.088753,-115.67457 9.6489,-38.88494 25.88021,-68.43443 47.45114,-86.38595 14.17755,-11.79867 39.83471,-21.21583 57.79966,-21.21468 8.63088,5.6e-4 14.08652,2.57202 36.70741,17.30173 20.08618,13.07921 25.93919,16.00775 45.18526,22.60827 31.06514,10.65394 68.03356,10.74212 98.774,0.23557 17.86188,-6.10488 25.21616,-9.81296 45.56976,-22.97656 25.4985,-16.49105 28.52723,-17.75661 40.348,-16.85947 20.02302,1.51964 39.90526,9.27367 54.12756,21.10959 36.85302,30.66939 59.08774,100.1279 56.99986,178.06046 -0.54237,20.24479 -0.97461,23.56167 -4.37852,33.59859 -3.86665,11.40145 -10.19361,22.43569 -17.89197,31.20364 -5.97682,6.8072 -20.65534,16.3094 -31.62683,20.47375 -18.98896,7.20746 -16.07368,7.10206 -193.14786,6.98296 -90.2,-0.0607 -166.80149,-0.58306 -170.22553,-1.16086 z M 52.556886,384.69003 C 33.991326,380.65023 16.557625,367.94569 9.5279197,353.33335 6.2491715,346.51796 5.9672529,344.49328 5.5363431,324.66668 4.2489329,265.43164 16.271383,220.20207 36.018361,209.99051 c 8.431238,-4.35996 12.046542,-3.92184 25.392724,3.07719 17.677027,9.27024 41.264575,18.37056 54.469435,21.01488 14.63056,2.92981 42.6329,2.03453 58.1137,-1.85799 5.86349,-1.47433 10.90083,-2.44066 11.19408,-2.1474 0.29325,0.29326 0.43108,8.79586 0.30628,18.89467 -0.25636,20.74323 1.8154,35.90328 7.02344,51.39414 3.60624,10.72642 12.54571,29.56218 17.06581,35.95825 3.29102,4.65687 2.20558,6.34243 -4.0843,6.34243 -12.08803,0 -32.07599,5.34643 -46.16619,12.34867 -10.46987,5.20306 -19.16047,11.5608 -30.93043,22.6276 l -9.5971,9.02373 -29.069571,-0.106 c -18.75403,-0.0684 -31.947384,-0.7322 -37.179353,-1.87065 z m 261.443124,-0.65379 c -30.71956,-6.66543 -54.00828,-20.91136 -76.39978,-46.73446 -11.63476,-13.41785 -22.51964,-34.43809 -26.91072,-51.96844 -3.58884,-14.32762 -4.83878,-37.18956 -2.84794,-52.0898 6.9047,-51.67735 47.17107,-97.335 98.38301,-111.55563 11.83162,-3.28542 15.25216,-3.64085 35.10876,-3.6481 18.66981,-0.007 23.71557,0.45002 33.33334,3.01799 24.03337,6.41697 46.77293,20.1701 64.60671,39.07483 11.58277,12.27836 15.8166,18.22206 22.6998,31.86738 18.57665,36.82653 18.67341,82.87243 0.2512,119.55324 -9.52448,18.96437 -28.33454,40.53087 -45.98676,52.72571 -9.38724,6.48507 -29.5382,15.42464 -41.62902,18.46788 -16.57585,4.17213 -44.57724,4.76784 -60.6086,1.2894 z m 240.26377,-6.39329 c -11.72999,-11.02922 -20.42047,-17.39524 -30.93043,-22.65746 -11.96175,-5.98909 -29.22652,-11.0093 -40.97813,-11.91552 -5.74555,-0.44306 -10.68696,-1.19473 -10.98092,-1.67037 -0.29396,-0.47564 2.12934,-5.38502 5.38513,-10.90971 7.81036,-13.25331 15.9872,-35.23615 18.58445,-49.96293 1.36199,-7.7227 2.00775,-18.50006 1.85106,-30.89298 -0.1324,-10.46799 0.0455,-19.3188 0.39514,-19.66849 0.3497,-0.34968 5.38498,0.6303 11.18954,2.17774 15.1216,4.03131 42.98305,4.95404 58.00655,1.92112 13.58828,-2.74318 36.49637,-11.52342 54.39938,-20.85026 14.92719,-7.77655 18.04006,-7.96375 27.74831,-1.6688 11.35075,7.35996 20.53862,28.0766 25.00662,56.38455 2.84001,17.99352 4.83088,58.47496 3.43093,69.76329 -2.22501,17.94123 -12.18819,31.65356 -29.23731,40.23936 -14.98799,7.54783 -22.23679,8.69214 -55.20365,8.71448 l -29.06956,0.0197 z M 121.14384,205.46858 C 104.84313,201.90757 90.11899,193.92074 78.073703,182.10601 66.793545,171.04175 61.627062,163.78538 56.707458,152.09691 46.313588,127.40218 47.263134,102.58382 59.56569,77.390967 64.558124,67.167589 67.647805,62.879003 75.895732,54.724299 94.203906,36.623053 110.9273,29.272926 136.03439,28.292653 c 18.26715,-0.713216 27.0887,1.120429 43.86055,9.116831 21.92284,10.452266 41.839,35.193252 47.43468,58.926062 2.581,10.946684 2.5284,29.431334 -0.11773,41.401244 -3.7638,17.02531 -10.09487,27.97754 -24.46431,42.32118 -14.13636,14.11097 -22.75633,19.4178 -38.75701,23.86042 -14.6675,4.07248 -28.93741,4.58876 -42.84668,1.55019 z m 409.29732,1.25332 c -20.38185,-3.72133 -33.81342,-10.31765 -47.58417,-23.36887 -20.66441,-19.58468 -29.52364,-39.69036 -29.52364,-67.00277 0,-14.26381 2.37203,-24.119553 9.31396,-38.699381 4.21864,-8.860229 7.54551,-13.344967 17.0016,-22.91882 9.75677,-9.878268 13.67835,-12.818196 23.05387,-17.283052 15.12504,-7.202919 24.6406,-9.449006 40.03076,-9.449006 34.58411,0 64.15093,17.776799 79.83483,48.000002 8.13436,15.675091 10.01496,23.580762 9.99093,41.999997 -0.0183,14.00659 -0.48192,17.32895 -3.72149,26.66667 -5.53071,15.94166 -10.78351,24.13327 -23.51219,36.66667 -12.61356,12.42005 -24.51773,19.40367 -39.68768,23.28291 -10.29639,2.63297 -26.87608,3.62485 -35.19678,2.10565 z M 169.10782,654.63582 c -29.94551,-5.0533 -53.65205,-21.61204 -65.0899,-45.46452 -7.399149,-15.43017 -9.300562,-25.72613 -9.326985,-50.50461 -0.03429,-32.15841 3.228926,-60.81902 10.058275,-88.34125 4.82469,-19.44341 7.95249,-28.15176 15.92049,-44.32543 19.1684,-38.90849 47.4922,-59.34196 85.40472,-61.61298 14.24049,-0.85303 13.19499,-1.2722 39.62348,15.88582 20.14931,13.08143 28.69838,17.335 47.41627,23.59194 37.85649,12.65449 77.49435,10.18774 115.64182,-7.19662 5.35757,-2.44152 18.02921,-9.79853 28.1592,-16.3489 26.8432,-17.35768 25.4296,-16.79823 40.36619,-15.97518 28.5169,1.57136 52.84162,14.81198 70.66439,38.46456 26.64213,35.35679 41.37928,94.88533 39.77905,160.68156 -0.52576,21.61738 -0.91836,24.82521 -4.20565,34.36334 -4.60804,13.3703 -8.82264,20.52208 -17.82238,30.24287 -12.73484,13.75514 -31.36789,23.23034 -51.95217,26.41848 -11.19866,1.73447 -334.403,1.84787 -344.6368,0.12094 z M 51.214574,384.68819 C 33.357316,380.80279 16.477586,368.66863 9.6828883,354.83273 6.1759821,347.69169 5.9779738,346.25025 5.5390378,324.66668 4.1264181,255.20466 18.508055,211.01901 43.776723,207.18651 c 5.709305,-0.86593 7.159287,-0.44249 17.556612,5.12704 29.170753,15.6259 50.629645,22.31607 74.666665,23.27859 16.59466,0.66451 18.69073,0.40468 47.51655,-5.88996 2.82102,-0.61601 2.8433,-0.44876 2.19898,16.50443 -0.73991,19.46817 1.42682,36.07444 6.89089,52.81316 3.42244,10.48436 12.33715,29.40431 16.89309,35.85273 4.3508,6.15806 3.42356,7.32546 -6.55498,8.25286 -28.25363,2.62591 -54.22626,15.02011 -74.23612,35.42568 l -7.95826,8.11564 -30.70841,-0.106 c -20.134548,-0.0695 -33.503946,-0.71425 -38.827166,-1.87249 z m 260.545006,-0.64998 c -28.94497,-6.1043 -55.8761,-23.1006 -76.11793,-48.0382 -10.79052,-13.29372 -20.81838,-32.89401 -25.23983,-49.33333 -2.62745,-9.76914 -3.04816,-14.55375 -3.04816,-34.66667 0,-20.20092 0.4128,-24.85479 3.07493,-34.66667 12.46171,-45.93036 49.16478,-83.04326 94.64219,-95.69895 11.7745,-3.27667 15.01318,-3.59873 36.26256,-3.60604 20.07474,-0.007 24.91609,0.41537 34.66667,3.02372 45.69284,12.22318 83.66446,49.94626 96.24457,95.6146 2.5386,9.2156 2.93832,14.02227 2.93832,35.33334 0,29.19969 -1.83739,37.97557 -12.42247,59.33333 -18.44689,37.22074 -53.36095,64.69125 -92.48076,72.76422 -16.24779,3.35297 -42.46589,3.32639 -58.52009,-0.0593 z m 242.19871,-5.48717 c -19.78834,-20.17965 -46.79099,-33.19023 -73.58503,-35.45515 -5.33862,-0.45128 -9.70658,-1.42973 -9.70658,-2.17435 0,-0.7446 2.65702,-5.90656 5.90448,-11.47101 7.23,-12.38844 13.32051,-27.55061 17.14951,-42.69335 2.40375,-9.50617 2.89347,-15.30196 2.91733,-34.52645 l 0.0287,-23.10263 3.33333,0.64697 c 1.83334,0.35583 9.33334,1.96091 16.66667,3.56684 16.73031,3.66379 40.86228,3.17195 56.66667,-1.15493 13.34451,-3.65343 33.68152,-12.04055 47.62289,-19.63999 9.98883,-5.44492 12.08146,-6.11016 17.35177,-5.51612 17.3488,1.95546 29.83236,22.81762 35.62862,59.54147 2.90686,18.41722 4.9398,60.5083 3.48287,72.11127 -2.25148,17.93096 -11.07825,30.28655 -27.98247,39.16947 -14.50342,7.62133 -21.93401,8.77151 -56.81208,8.79389 l -30.7084,0.0197 z M 120.77979,206.01035 C 108.77961,203.50698 93.769385,196.30422 83.464444,188.10433 50.225066,161.65495 40.121673,116.12131 58.885638,77.333336 63.408232,67.984449 66.495529,63.892018 76.517445,53.961139 95.685909,34.9668 112.60645,28.0582 140.0532,28.019709 c 16.90475,-0.02371 26.02646,2.087067 41.26361,9.548444 21.50694,10.531585 40.54666,34.243463 45.97001,57.250573 2.6014,11.035764 2.5864,34.049364 -0.0295,45.181274 -3.6916,15.70983 -10.50373,27.34439 -23.87213,40.77159 -12.84419,12.90068 -24.25109,19.84087 -39.38524,23.96274 -10.81809,2.94636 -32.1888,3.5773 -43.22022,1.27602 z m 410.55356,1.24747 c -1.46667,-0.33957 -5.96667,-1.26263 -10,-2.05124 -29.42072,-5.75248 -58.76432,-34.86528 -65.97657,-65.45763 -2.59108,-10.99062 -2.5964,-34.26035 -0.0107,-44.468815 6.13829,-24.227417 24.40559,-47.151229 45.98724,-57.709228 15.25968,-7.465217 24.36811,-9.570906 41.40019,-9.570906 27.49273,0 44.04767,6.790606 63.3486,25.984741 C 626.12339,73.9151 632.61323,89.59414 632.57925,118 c -0.0185,15.4869 -0.41603,18.46824 -3.7315,27.9872 -5.01846,14.40845 -11.66145,24.93763 -22.47073,35.61633 -16.82893,16.62562 -35.64076,24.8556 -58.86001,25.75064 -7.43435,0.28657 -14.71699,0.24321 -16.18366,-0.0964 z M 169.85686,655.88249 c -11.47957,-1.92027 -27.42343,-7.55708 -36.34184,-12.84835 -10.54828,-6.25826 -24.2443,-20.59035 -29.34781,-30.71079 -7.779149,-15.42628 -9.807533,-24.54736 -10.505151,-47.23866 -1.49002,-48.46566 7.882581,-101.07769 24.359631,-136.74012 9.42294,-20.39469 25.83305,-40.56504 40.64498,-49.9584 19.69466,-12.48985 50.48174,-19.17516 63.4165,-13.77068 2.56529,1.07186 13.06817,7.42114 23.33973,14.10951 35.1014,22.85644 62.35835,31.93096 95.91044,31.93096 33.99166,0 60.00781,-8.66476 96.09729,-32.00548 24.94975,-16.13615 25.86387,-16.49145 40.08509,-15.58069 20.32866,1.3019 40.91099,9.69452 56.75666,23.14297 34.59376,29.36027 56.77697,101.15762 54.78805,177.32498 -0.54726,20.95812 -0.87169,23.29751 -4.8448,34.93511 -4.88966,14.32232 -10.4318,23.28545 -20.47625,33.11572 -12.75032,12.47844 -31.05227,21.09453 -51.73936,24.35761 -10.65508,1.68067 -332.07284,1.62084 -342.14316,-0.0637 z M 52.000002,385.91991 C 30.031948,381.18469 11.943716,366.77121 6.7118354,349.83236 2.1739626,335.14042 3.2316605,289.55769 8.7808276,260.66668 15.131189,227.60435 25.918346,210.14903 42.260116,206.49191 l 7.24605,-1.6216 13.169803,6.87272 c 31.751438,16.56963 48.174081,21.6149 73.324031,22.5262 15.23543,0.55206 20.15022,0.19554 32.00001,-2.3213 21.56374,-4.58003 19.40757,-6.26054 18.88482,14.71875 -0.4921,19.74968 1.71434,37.32224 6.51922,51.92046 2.66624,8.10063 13.16669,29.90666 18.09546,37.57844 3.36468,5.23722 1.67187,7.8311 -5.12433,7.85195 -10.56657,0.0324 -30.48204,5.03464 -41.94713,10.53599 -14.47854,6.94728 -21.52483,11.86067 -34.01029,23.71536 l -10.2489,9.73113 -29.751097,-0.106 c -20.125662,-0.0717 -32.555038,-0.71038 -38.417761,-1.9741 z m 261.333338,-0.51659 c -29.61313,-6.29469 -55.03521,-21.36733 -74.82973,-44.3662 -15.28827,-17.76315 -23.11083,-32.59238 -29.39978,-55.73318 -2.62634,-9.66386 -3.07205,-14.49586 -3.07205,-33.30393 0,-18.80807 0.44571,-23.64007 3.07205,-33.30394 6.30772,-23.20986 14.10386,-37.96114 29.5437,-55.9004 24.62821,-28.61504 57.85383,-44.6637 96.01915,-46.37924 33.99152,-1.52793 62.04316,6.85242 87.73233,26.20979 35.7897,26.96835 54.93434,65.08516 54.93434,109.37379 0,32.23301 -9.54212,59.82888 -29.10256,84.16472 -27.5818,34.31551 -64.21395,51.93067 -107.56411,51.72395 -10.07843,-0.048 -20.19446,-0.96789 -27.33334,-2.48536 z m 238.91559,-7.13444 c -11.90508,-11.30364 -18.5885,-16.07744 -31.82091,-22.72889 -12.13282,-6.09871 -26.194,-10.05183 -39.54927,-11.11874 -6.84331,-0.54669 -10.69009,-1.44888 -11.13635,-2.61178 -0.37496,-0.97714 2.05911,-6.45177 5.40906,-12.16586 7.58181,-12.93252 13.50917,-27.10949 17.13234,-40.97693 2.25987,-8.64946 2.84632,-15.33146 3.1011,-35.33334 l 0.3142,-24.66667 3.15046,0.19616 c 1.73275,0.10787 9.15046,1.51572 16.48379,3.12854 11.29961,2.48508 16.07887,2.8327 31.33334,2.279 25.08529,-0.91054 41.62662,-5.9254 72,-21.82836 11.69446,-6.12302 14.82505,-7.2228 19.00999,-6.67828 24.44022,3.18002 37.80122,35.67846 40.95664,99.62032 1.85832,37.65732 -1.0056,50.17547 -14.40278,62.9542 -9.15998,8.73715 -18.19966,13.57711 -31.90499,17.08235 -8.49816,2.17345 -14.78664,2.57941 -39.95657,2.57941 H 562.49783 Z M 122.66667,207.40082 C 99.720533,202.47689 82.105001,191.72599 68.057774,174.07261 45.876808,146.19742 42.258317,106.22267 59.003494,74.046819 65.089202,62.353134 85.92705,41.94556 97.585827,36.26116 112.69404,28.894937 125.96397,26.246992 143.90732,27.017945 c 16.56685,0.711811 27.69535,3.70482 41.7779,11.236154 10.57065,5.653185 28.70968,24.46537 34.72331,36.011928 13.53297,25.984253 13.78253,58.518823 0.656,85.523243 -6.41331,13.19371 -26.2777,32.81218 -39.73119,39.2393 -18.7244,8.9452 -41.10962,12.13976 -58.66667,8.37225 z m 408.66668,1.06919 c -9.78577,-1.57202 -20.7536,-5.02436 -29.99376,-9.44118 -14.3226,-6.84621 -32.04287,-24.70545 -39.66856,-39.97965 -7.69393,-15.41087 -10.16324,-27.6455 -9.32037,-46.17933 1.14222,-25.116102 8.40921,-41.553657 26.31602,-59.525502 17.95908,-18.024296 34.38856,-25.222 60.09269,-26.326403 27.86958,-1.197444 46.83412,5.743493 66.28036,24.258318 13.2524,12.617651 20.0488,23.058014 25.20816,38.72374 3.01262,9.147476 3.52338,13.040407 3.58613,27.333337 0.0676,15.39982 -0.25205,17.60801 -4.20544,29.05105 -5.46484,15.81796 -11.5104,25.24472 -23.80747,37.12276 -16.19312,15.64132 -36.06962,24.1746 -58.4797,25.10623 -6.60443,0.27455 -13.80806,0.21004 -16.00806,-0.14337 z M 169.85686,657.21582 c -11.47943,-1.92024 -27.4237,-7.55716 -36.33488,-12.84578 -10.63472,-6.31152 -25.57033,-21.89807 -30.66562,-32.00214 -7.802673,-15.47285 -9.829534,-24.57617 -10.527634,-47.28321 -1.220898,-39.71194 4.576795,-80.90375 16.479504,-117.08467 10.15624,-30.87213 30.18536,-58.78141 51.85844,-72.26138 18.12774,-11.27488 49.17406,-17.57169 61.4165,-12.45648 2.56529,1.07185 13.06817,7.42113 23.33973,14.10951 35.1014,22.85644 62.35835,31.93096 95.91044,31.93096 33.99166,0 60.00781,-8.66476 96.09729,-32.00548 24.94975,-16.13615 25.86387,-16.49146 40.08509,-15.5807 20.73886,1.32818 42.30968,10.3309 58.0879,24.24336 35.02071,30.87956 56.77904,101.39161 54.79015,177.55793 -0.54727,20.95812 -0.8717,23.29751 -4.8448,34.93511 -4.96856,14.55337 -10.42108,23.26512 -21.14458,33.78364 -13.4003,13.14416 -31.30904,21.69556 -52.40437,25.02303 -10.65508,1.68066 -332.07284,1.62084 -342.14316,-0.0637 z M 52.000002,387.25324 c -22.105905,-4.76493 -41.28641,-20.14788 -46.6091806,-37.381 -2.2558829,-7.30369 -2.7241546,-12.43848 -2.7241546,-29.8714 0,-67.99286 14.1678982,-109.15227 39.5258002,-114.82713 l 7.313699,-1.63673 13.079428,6.82556 c 16.626565,8.67664 35.575123,16.57067 47.465026,19.77405 14.38452,3.8755 47.67096,3.5408 64.44515,-0.64797 9.04469,-2.25861 12.75521,-2.70056 13.43525,-1.60023 0.51673,0.8361 0.68669,9.45324 0.37769,19.14923 -0.61768,19.38179 1.54335,36.7069 6.43078,51.55598 2.97162,9.02842 13.16553,30.25122 17.42577,36.2789 5.00011,7.07449 2.87504,10.44441 -6.60764,10.47837 -9.82941,0.0352 -30.0294,5.20974 -41.12957,10.53598 -14.47854,6.94728 -21.52483,11.86067 -34.01029,23.71536 l -10.2489,9.73114 -29.751097,-0.106 c -20.125662,-0.0717 -32.555038,-0.71039 -38.417761,-1.97411 z m 261.333338,-0.45343 c -28.96257,-6.39396 -52.72054,-20.07218 -72.70316,-41.85752 -16.92212,-18.44873 -26.28267,-35.43756 -32.85968,-59.63835 -2.62635,-9.66386 -3.07205,-14.49586 -3.07205,-33.30393 0,-18.80807 0.4457,-23.64007 3.07205,-33.30394 6.57701,-24.20078 15.93756,-41.18961 32.85968,-59.63834 25.24532,-27.52283 56.85203,-42.30318 94.0365,-43.97464 33.98095,-1.52745 62.04437,6.85334 87.71116,26.19383 36.78084,27.71522 56.28884,66.08845 56.28884,110.72309 0,39.42649 -14.95229,73.39805 -44.35097,100.76524 -17.45015,16.24432 -36.12534,26.55663 -59.41512,32.8086 -14.97698,4.02047 -46.1017,4.64024 -61.56725,1.22596 z m 238.91559,-7.1976 c -5.6369,-5.35213 -12.94891,-11.57305 -16.24891,-13.82426 -15.77248,-10.7598 -36.18751,-18.36692 -53.27375,-19.85108 -17.48773,-1.51903 -17.52389,-1.58712 -8.7718,-16.51583 7.4564,-12.7186 13.39492,-26.95775 16.99265,-40.74436 2.26446,-8.6774 2.84259,-15.3422 3.09999,-35.73732 0.17404,-13.78886 0.67376,-25.42798 1.11049,-25.86471 0.43674,-0.43674 6.65495,0.64505 13.81824,2.40398 17.13782,4.20814 49.09265,4.55614 63.49566,0.69148 12.30704,-3.30225 30.86184,-10.96156 46.74041,-19.29417 13.79355,-7.23845 16.29355,-7.80319 23.58915,-5.32867 12.41563,4.21115 20.79126,14.80367 27.03366,34.18904 7.4163,23.03082 9.41353,38.85401 9.45908,74.94037 0.0372,29.49675 -0.13702,31.76965 -2.97287,38.77719 -6.08967,15.0478 -23.09529,27.96472 -43.78226,33.25556 -8.75118,2.23817 -14.78673,2.63392 -40.16969,2.63392 H 562.49783 Z M 122.66667,208.73415 C 99.573435,203.77866 82.079983,193.03306 67.274746,174.70891 44.582067,146.62262 40.758288,106.55708 57.667747,74.046819 63.792381,62.27155 85.874883,40.629036 97.585827,34.924097 112.70293,27.559861 125.9685,24.913853 143.90732,25.684612 c 16.56118,0.711566 27.67822,3.700284 41.7779,11.231612 10.64287,5.684879 30.03636,25.771407 36.06113,37.349803 13.52718,25.996503 13.77622,58.507333 0.65514,85.523243 -6.44534,13.27074 -27.55094,34.12354 -41.06815,40.57624 -18.73344,8.94276 -41.11379,12.13526 -58.66667,8.36864 z m 408.66668,1.06919 c -9.78317,-1.5716 -20.75351,-5.02412 -30,-9.44144 -14.4166,-6.88723 -33.33589,-25.95097 -40.99967,-41.31272 -7.69096,-15.41626 -10.15902,-27.64993 -9.31636,-46.17933 1.15575,-25.413407 8.39218,-41.560168 26.9827,-60.206923 18.65033,-18.70675 34.76368,-25.861386 60.75935,-26.978315 12.82036,-0.550839 17.3247,-0.185696 26.66666,2.161722 17.34894,4.359384 26.39787,9.473229 40.3168,22.78433 13.91019,13.302748 20.6213,23.528287 25.83839,39.369339 3.01263,9.147476 3.52339,13.040407 3.58614,27.333337 0.0676,15.39982 -0.25206,17.60801 -4.20545,29.05105 -5.53053,16.0081 -11.5034,25.24447 -24.42206,37.76606 -16.84626,16.32844 -36.3983,24.84842 -59.19844,25.79626 -6.60443,0.27455 -13.80806,0.21004 -16.00806,-0.14337 z" />
  </g>
</svg>
